<?xml version="1.0" encoding="utf-8"?>
<!-- Generator: Adobe Illustrator 16.0.0, SVG Export Plug-In . SVG Version: 6.00 Build 0)  -->
<!DOCTYPE svg PUBLIC "-//W3C//DTD SVG 1.1//EN" "http://www.w3.org/Graphics/SVG/1.1/DTD/svg11.dtd">
<svg version="1.1" id="Ebene_1" xmlns="http://www.w3.org/2000/svg" xmlns:xlink="http://www.w3.org/1999/xlink" x="0px" y="0px"
	 width="100px" height="100px" viewBox="0 0 100 100" enable-background="new 0 0 100 100" xml:space="preserve">
<title>Artboard 1</title>
<desc>Created with Sketch.</desc>
<path fill="#C88B64" d="M12.947,77.541c-4.554-11.398-7.1-31.403-6.028-34.737C-2.994,5.485,14.421,2.259,14.421,2.259
	s13.128,4.517,19.693,24.52c0,0,4.152-2.043,13.932-2.043c9.777,0,13.931,2.043,13.931,2.043C68.541,6.669,81.67,2.259,81.67,2.259
	s17.415,3.226,7.503,40.545c1.069,3.334-1.606,23.336-6.03,34.737C79.125,87.65,66.533,96.686,51.127,97.868
	c-1.073,0.106-2.145,0.106-3.081,0.106c-1.073,0-2.144,0-3.082-0.106C29.56,96.686,16.833,87.544,12.947,77.541z"/>
<path fill="#F7F7F7" stroke="#000000" stroke-width="0.3802" d="M40.411,61.84c-3.617,5.055-12.995,8.066-21.435,0
	c-7.234-5.915-8.439,5.27-4.555,18.067c6.966,14.841,28.132,19.144,33.893,18.714c5.759,0.32,26.928-3.979,33.893-18.714
	c3.752-12.798,2.546-23.982-4.557-18.067c-8.438,8.066-17.816,5.055-21.435,0c-4.42-7.958-7.234-8.174-7.903-8.174
	S44.832,53.882,40.411,61.84z"/>
<path fill="#CA8B63" d="M46.454,80.682c6.853-0.313,6.235,3.457,5.694,4.024c-2.692,3.271-5.387,3.333-5.694,3.333
	s-3.081-0.062-5.698-3.333C40.218,84.203,39.602,80.366,46.454,80.682L46.454,80.682z"/>
<path fill="#383838" d="M70.693,49.719c0.423,2.938-2.104,6.359-4.422,6.848c-2.32,0.49-5.688-0.487-5.9-3.422
	c-0.421-2.937,1.054-6.116,4.003-6.851C67.532,45.563,70.271,46.785,70.693,49.719z"/>
<path fill="none" stroke="#BD7E56" stroke-miterlimit="10" d="M67.337,83.887c0,0-6.162,6.992-9.647,8.391
	c-2.141,0.858-7.898,1.074-9.24,1.074c0,0,0,0-0.133,0c-0.133,0-0.133,0-0.133,0c-1.341,0-7.101-0.216-9.244-1.074
	c-3.35-1.396-9.646-8.391-9.646-8.391"/>
<path fill="#FFFFFF" stroke="#7C523E" stroke-miterlimit="10" d="M27.684,28.823c0,0-5.225,2.043-7.771,3.334
	c-2.544,1.29-8.975,5.161-8.975,5.161s-5.895-23.123,2.679-30.65C21.253,6.669,27.684,28.823,27.684,28.823z"/>
<path fill="#FFFFFF" stroke="#7C523E" stroke-miterlimit="10" d="M67.74,29.36c0,0,5.223,2.044,7.769,3.334
	c2.544,1.291,8.976,5.163,8.976,5.163s5.895-23.123-2.68-30.651C74.168,7.314,67.74,29.36,67.74,29.36z"/>
<path fill="#383838" d="M32.842,46.758c2.686,1.666,3.809,5.663,2.667,7.565c-1.142,1.903-4.184,3.543-6.729,1.735
	c-2.685-1.666-4.308-4.785-2.948-7.281C27.334,46.144,30.157,45.094,32.842,46.758z"/>
</svg>
