<?xml version="1.0" encoding="utf-8"?>
<!-- Generator: Adobe Illustrator 16.0.0, SVG Export Plug-In . SVG Version: 6.00 Build 0)  -->
<!DOCTYPE svg PUBLIC "-//W3C//DTD SVG 1.1//EN" "http://www.w3.org/Graphics/SVG/1.1/DTD/svg11.dtd">
<svg version="1.1" id="Ebene_1" xmlns="http://www.w3.org/2000/svg" xmlns:xlink="http://www.w3.org/1999/xlink" x="0px" y="0px"
	 width="90px" height="90px" viewBox="0 0 90 90" enable-background="new 0 0 90 90" xml:space="preserve">
<g id="_x35_AX4K0.tif">
	
		<image overflow="visible" width="400" height="300" id="Layer_0_1_" xlink:href="AE5F2BC0A4D7025C.png"  transform="matrix(0.316 0 0 0.2614 88.0889 -88.9028)">
	</image>
</g>
<g>
	<path fill="#76C0BA" d="M71.639,33.521c0-29.921-9.322-39.833-20.71-7.509c-5.178-2.574-10.166-2.104-15.374,0
		C22.266-2.84,13.65-0.322,13.65,33.521c0,24.819-4.292,46.087,31.542,46.087C76.239,79.607,71.639,58.342,71.639,33.521z
		 M21.21,30.754c-2.073,1.031-4.268,0.418-4.268,0.418c0-21.598,5.496-23.196,13.977-4.783
		C30.916,26.389,21.822,30.448,21.21,30.754z M64.254,30.408c-0.612-0.306-9.71-4.365-9.71-4.365
		c8.48-18.413,13.978-16.813,13.978,4.783C68.521,30.828,66.326,31.439,64.254,30.408z"/>
	<path fill="#5D5D5D" d="M21.663,42.752c-0.326-3.061,1.443-5.826,3.951-6.174c2.506-0.349,4.805,1.853,5.13,4.914
		c0.325,3.062-1.445,5.823-3.951,6.171C24.284,48.013,21.989,45.813,21.663,42.752z"/>
	<path fill="#FEF5E3" d="M26.151,42.365c0.119,1.904-0.53,3.644-1.619,4.757c0.648,0.359,1.356,0.556,2.106,0.492
		c2.469-0.205,4.311-2.889,4.112-5.998c-0.197-3.105-2.357-5.461-4.824-5.257c-0.956,0.079-1.813,0.536-2.499,1.238
		C24.913,38.421,26.013,40.198,26.151,42.365z"/>
	<path fill="#5D5D5D" d="M49.105,42.212c-0.327-3.06,1.443-5.825,3.951-6.174c2.506-0.348,4.805,1.854,5.129,4.915
		c0.327,3.062-1.443,5.823-3.95,6.17C51.727,47.473,49.431,45.274,49.105,42.212z"/>
	<path fill="#FEF5E3" d="M53.378,41.991c0.121,1.901-0.561,3.642-1.698,4.759c0.674,0.355,1.412,0.548,2.193,0.481
		c2.571-0.212,4.497-2.9,4.301-6.005c-0.197-3.102-2.442-5.449-5.013-5.236c-0.996,0.083-1.89,0.543-2.605,1.246
		C52.101,38.054,53.24,39.826,53.378,41.991z"/>
	<line fill="none" stroke="#000000" stroke-width="0.5" stroke-miterlimit="10" x1="63.542" y1="56.526" x2="77.5" y2="50.583"/>
	<line fill="none" stroke="#000000" stroke-width="0.5" stroke-miterlimit="10" x1="64.252" y1="57.877" x2="75.606" y2="57.877"/>
	<line fill="none" stroke="#000000" stroke-width="0.5" stroke-miterlimit="10" x1="64.725" y1="60.308" x2="73.006" y2="63.279"/>
	<line fill="none" stroke="#000000" stroke-width="0.5" stroke-miterlimit="10" x1="20.485" y1="58.417" x2="7.473" y2="50.041"/>
	<line fill="none" stroke="#000000" stroke-width="0.5" stroke-miterlimit="10" x1="19.302" y1="60.578" x2="7" y2="58.688"/>
	<line fill="none" stroke="#000000" stroke-width="0.5" stroke-miterlimit="10" x1="18.711" y1="62.74" x2="11.14" y2="64.901"/>
	<path fill="#F89BC0" d="M50.79,63.116l-7.254,2.82c0.843,2.379,4.641,6.854,6.038,6.415C52.19,71.534,51.145,66.253,50.79,63.116z"
		/>
	<path fill="#F89BC0" d="M44.114,51.078h-5.646c-1.054,0.399,1.533,3.468,2.876,3.468C42.725,54.546,45.403,51.486,44.114,51.078z"
		/>
	<path fill="#59828F" d="M53.912,58.338c-1.332-0.581-3.043-0.183-3.865,0.757c-1.472,1.674-3.921,2.78-6.693,2.78
		c-0.346,0-1.532,0-1.875,0c-2.773,0-5.305-1.106-6.774-2.778c-0.822-0.941-2.572-1.286-3.905-0.706
		c-1.334,0.583-1.747,1.789-0.921,2.726c2.511,2.859,6.847,4.556,11.601,4.556c0.344,0,1.541-0.012,1.886-0.012
		c4.755,0,8.935-1.709,11.449-4.566C55.639,60.154,55.242,58.921,53.912,58.338z"/>
	<line fill="#DD6B9E" x1="47.613" y1="66.793" x2="49.821" y2="72.017"/>
</g>
</svg>
