<?xml version="1.0" encoding="utf-8"?>
<!-- Generator: Adobe Illustrator 16.0.0, SVG Export Plug-In . SVG Version: 6.00 Build 0)  -->
<!DOCTYPE svg PUBLIC "-//W3C//DTD SVG 1.1//EN" "http://www.w3.org/Graphics/SVG/1.1/DTD/svg11.dtd">
<svg version="1.1" id="Your_Icon" xmlns="http://www.w3.org/2000/svg" xmlns:xlink="http://www.w3.org/1999/xlink" x="0px" y="0px"
	 width="101px" height="55.5px" viewBox="0 16.5 101 55.5" enable-background="new 0 16.5 101 55.5" xml:space="preserve">
<rect x="0.5" y="17" fill="#735750" stroke="#000000" stroke-miterlimit="10" width="100" height="54.5"/>
<text transform="matrix(1 0 0 1 35.5 67.834)" fill="#FFFFFF" font-family="'Roboto-Regular'" font-size="10">Goals</text>
<g>
	<path fill="#FFFFFF" d="M37.265,39.43c0,5.106,4.519,9.259,10.075,9.259c5.557,0,10.077-4.152,10.077-9.259
		c0-1.444-0.372-2.81-1.019-4.029l-2.164,1.988c0.226,0.645,0.352,1.329,0.352,2.041c0,3.671-3.249,6.657-7.246,6.657
		c-3.993,0-7.243-2.986-7.243-6.657c0-3.669,3.25-6.656,7.243-6.656c0.775,0,1.521,0.114,2.222,0.322l2.165-1.988
		c-1.327-0.595-2.812-0.937-4.386-0.937C41.783,30.171,37.265,34.325,37.265,39.43z"/>
	<path fill="#FFFFFF" d="M59.776,35.396c0.487,1.265,0.754,2.621,0.754,4.036c0,6.683-5.918,12.121-13.192,12.121
		c-7.273,0-13.19-5.438-13.19-12.121c0-6.684,5.917-12.124,13.19-12.124c1.484,0,2.912,0.23,4.244,0.647l0.071-0.064l2.111-1.944
		c-1.968-0.795-4.142-1.24-6.426-1.24c-8.835,0-16.022,6.605-16.022,14.725c0,8.118,7.187,14.723,16.022,14.723
		s16.024-6.604,16.024-14.723c0-2.151-0.509-4.191-1.413-6.034l-2.144,1.973L59.776,35.396z"/>
	<path fill="#FFFFFF" d="M59.984,27.713L58.547,24l-5.559,5.117l0.939,2.421l-4.951,4.547c-0.5-0.205-1.053-0.323-1.637-0.323
		c-0.257,0-0.508,0.024-0.753,0.067c-1.844,0.322-3.239,1.812-3.239,3.601c0,2.026,1.787,3.669,3.992,3.669
		c1.948,0,3.567-1.28,3.919-2.977c0.046-0.223,0.074-0.455,0.074-0.692c0-0.535-0.129-1.044-0.354-1.504l4.999-4.594l2.491,0.812
		l5.558-5.116L59.984,27.713z"/>
</g>
</svg>
