<?xml version="1.0" encoding="utf-8"?>
<!-- Generator: Adobe Illustrator 16.0.0, SVG Export Plug-In . SVG Version: 6.00 Build 0)  -->
<!DOCTYPE svg PUBLIC "-//W3C//DTD SVG 1.1//EN" "http://www.w3.org/Graphics/SVG/1.1/DTD/svg11.dtd">
<svg version="1.1" id="Your_Icon" xmlns="http://www.w3.org/2000/svg" xmlns:xlink="http://www.w3.org/1999/xlink" x="0px" y="0px"
	 width="101px" height="55.5px" viewBox="0 16.5 101 55.5" enable-background="new 0 16.5 101 55.5" xml:space="preserve">
<rect x="0.5" y="17" fill="#735750" stroke="#000000" stroke-miterlimit="10" width="100" height="54.5"/>
<text transform="matrix(1 0 0 1 37.5 68.084)" fill="#FFFFFF" font-family="'Roboto-Regular'" font-size="10">Home</text>
<g id="layer1" transform="translate(0,-952.36218)" inkscape:groupmode="layer" inkscape:label="Layer 1">
	<path id="path5445" inkscape:connector-curvature="0" fill="#FFFFFF" d="M50.661,973.45c-0.264,0.002-0.516,0.118-0.702,0.323
		l-12.319,13.55c-0.395,0.431-0.397,1.133-0.005,1.567c0.392,0.434,1.029,0.437,1.424,0.005c0.002-0.002,0.004-0.003,0.005-0.005
		l11.607-12.767l11.607,12.767c0.392,0.434,1.029,0.437,1.424,0.005c0.395-0.431,0.397-1.132,0.006-1.566
		c-0.002-0.002-0.004-0.003-0.006-0.006l-2.995-3.296c0.003-0.046,0.003-0.093,0-0.138v-5.542c0.006-0.61-0.44-1.111-0.995-1.118
		c-0.011,0-0.021,0-0.032,0c-0.551,0.013-0.989,0.511-0.984,1.118v3.468l-7.311-8.042C51.192,973.562,50.932,973.447,50.661,973.45z
		 M39.777,990.999c-0.555,0.006-1.001,0.507-0.995,1.117v8.504v3.687c0,0.612,0.451,1.106,1.006,1.106h3.352h15.053h3.353
		c0.555,0,1.006-0.494,1.006-1.106v-12.19c0.007-0.61-0.436-1.112-0.992-1.122c-0.555-0.009-1.012,0.48-1.02,1.091
		c0,0.01,0,0.021,0,0.031v11.085h-2.347H43.139h-2.346v-2.581v-8.504c0.005-0.61-0.44-1.111-0.996-1.117
		C39.791,990.999,39.784,990.999,39.777,990.999z"/>
</g>
</svg>
