<?xml version="1.0" encoding="utf-8"?>
<!-- Generator: Adobe Illustrator 16.0.0, SVG Export Plug-In . SVG Version: 6.00 Build 0)  -->
<!DOCTYPE svg PUBLIC "-//W3C//DTD SVG 1.1//EN" "http://www.w3.org/Graphics/SVG/1.1/DTD/svg11.dtd">
<svg version="1.1" id="Your_Icon" xmlns="http://www.w3.org/2000/svg" xmlns:xlink="http://www.w3.org/1999/xlink" x="0px" y="0px"
	 width="101px" height="55.5px" viewBox="0 16.5 101 55.5" enable-background="new 0 16.5 101 55.5" xml:space="preserve">
<rect x="0.5" y="17" fill="#735750" stroke="#000000" stroke-miterlimit="10" width="100" height="54.5"/>
<text transform="matrix(1 0 0 1 25.5 67.834)" fill="#FFFFFF" font-family="'Roboto-Regular'" font-size="10">Leaderboard</text>
<g id="Your_Icon_1_">
	<path fill="#FFFFFF" d="M61.288,29.78c-0.845-1.843-2.453-2.829-4.188-2.81l0.066-0.747c0.112-1.263-0.499-2.317-1.367-2.317
		H44.787c-0.869,0-1.479,1.054-1.367,2.317l0.089,0.998c-1.743-0.094-3.379,0.924-4.224,2.885c-1.281,2.975-0.264,6.977,2.272,8.939
		c1.004,0.777,2.096,1.11,3.127,1.054c0.85,5.329,4.856,3.688,4.917,6.736c0,4.247-0.689,5.944-4.82,7.644h11.018
		c-4.132-2.548-4.82-3.396-4.82-7.644c0.062-3.156,4.419-1.907,5.005-7.348c0.984-0.01,2.009-0.341,2.959-1.031
		C61.562,36.554,62.612,32.668,61.288,29.78z M42.219,37.509c-1.902-1.473-2.702-4.388-1.787-6.512
		c0.625-1.452,1.89-2.157,3.235-1.99l0.305,3.422l0.525,5.909C43.748,38.345,42.956,38.078,42.219,37.509z M53.674,31.583
		l-1.303,1.481l0.289,1.971c0.024,0.065,0.037,0.137,0.037,0.211c0,0.306-0.213,0.554-0.475,0.554c-0.002,0-0.007,0-0.012,0
		c-0.074,0-0.15-0.021-0.22-0.063l-1.61-0.987l-1.609,0.987c-0.16,0.098-0.354,0.08-0.499-0.042
		c-0.146-0.124-0.219-0.333-0.188-0.541l0.307-2.091l-1.302-1.48c-0.129-0.146-0.175-0.367-0.12-0.566
		c0.056-0.2,0.204-0.346,0.382-0.377l1.799-0.304l0.807-1.904c0.158-0.376,0.689-0.376,0.848,0l0.808,1.904l1.798,0.304
		c0.178,0.031,0.326,0.177,0.382,0.377C53.849,31.217,53.802,31.436,53.674,31.583z M58.257,36.965
		c-0.683,0.496-1.413,0.754-2.116,0.797l0.475-5.333l0.332-3.73c1.318-0.083,2.539,0.599,3.156,1.944
		C61.048,32.705,60.221,35.535,58.257,36.965z"/>
</g>
</svg>
