<?xml version="1.0" encoding="utf-8"?>
<!-- Generator: Adobe Illustrator 16.0.0, SVG Export Plug-In . SVG Version: 6.00 Build 0)  -->
<!DOCTYPE svg PUBLIC "-//W3C//DTD SVG 1.1//EN" "http://www.w3.org/Graphics/SVG/1.1/DTD/svg11.dtd">
<svg version="1.1" id="Your_Icon" xmlns="http://www.w3.org/2000/svg" xmlns:xlink="http://www.w3.org/1999/xlink" x="0px" y="0px"
	 width="101px" height="55.5px" viewBox="0 16.5 101 55.5" enable-background="new 0 16.5 101 55.5" xml:space="preserve">
<rect x="0.5" y="17" fill="#735750" stroke="#666666" stroke-miterlimit="10" width="100" height="54.5"/>
<g>
	<path fill="#FFFFFF" stroke="#FFFFFF" stroke-miterlimit="10" d="M48.963,54.352c-9.194,0-16.677-8.004-16.677-17.842
		c0-9.839,7.481-17.842,16.677-17.842c9.194,0,16.676,8.003,16.676,17.842C65.639,46.348,58.157,54.352,48.963,54.352z
		 M48.963,20.619c-8.189,0-14.851,7.128-14.851,15.89c0,8.761,6.662,15.892,14.851,15.892c8.189,0,14.852-7.131,14.852-15.892
		S57.152,20.619,48.963,20.619z"/>
	<path fill="#FFFFFF" stroke="#FFFFFF" stroke-miterlimit="10" d="M48.963,41.786c-3.091,0-5.606-2.691-5.606-5.999
		c0-3.307,2.514-5.999,5.606-5.999s5.607,2.692,5.607,6S52.055,41.786,48.963,41.786z M48.963,31.741
		c-2.086,0-3.782,1.815-3.782,4.046s1.696,4.047,3.782,4.047c2.087,0,3.782-1.816,3.782-4.047S51.05,31.741,48.963,31.741z"/>
	<path fill="#FFFFFF" stroke="#FFFFFF" stroke-miterlimit="10" d="M48.963,54.352c-3.464,0-6.789-1.131-9.614-3.268l-0.431-0.326
		l0.049-0.562c0.481-5.553,4.778-9.74,9.996-9.74c5.219,0,9.516,4.188,9.995,9.74l0.051,0.561l-0.432,0.326
		C55.753,53.221,52.428,54.352,48.963,54.352z M40.85,49.814c2.417,1.691,5.209,2.586,8.113,2.586c2.903,0,5.697-0.896,8.114-2.586
		c-0.623-4.262-4.022-7.406-8.114-7.406S41.471,45.553,40.85,49.814z"/>
</g>
<text transform="matrix(1 0 0 1 35.5 67.834)" fill="#FFFFFF" font-family="'Roboto-Regular'" font-size="10">Profile</text>
</svg>
